<?xml version="1.0"?><svg width="533.3333333333333" height="533.3333333333333" xmlns="http://www.w3.org/2000/svg" xmlns:xlink="http://www.w3.org/1999/xlink">
 <title>writing class cover</title>
 <defs>
  <linearGradient id="linearGradient562">
   <stop stop-color="#de9500" offset="0" id="stop563"/>
   <stop stop-color="#ffff0f" offset="1" id="stop564"/>
  </linearGradient>
  <linearGradient y2="0.320313" y1="0.539066" xlink:href="#linearGradient562" x2="0.25" x1="0.614868" spreadMethod="reflect" id="linearGradient561" gradientUnits="objectBoundingBox"/>
 </defs>
 <g>
  <title>Layer 1</title>
  <g id="g855">
   <path fill="#ffffff" fill-rule="evenodd" stroke="#000000" stroke-width="10" stroke-linejoin="round" id="path588" d="m66.713402,11.430221c-11.641205,149.065095 35.262001,212.687089 -1.6959,451.942094c0,0 333.233902,3.391998 332.38591,3.391998c43.455994,-250 -25.20401,-331.332993 2.656982,-396.827499c-53.798004,-0.734398 -67.098999,-59.354493 -67.098999,-59.354493l-266.247993,0.8479z"/>
   <path fill="#eeebff" fill-rule="evenodd" stroke="#000000" stroke-width="10" stroke-linejoin="round" id="path589" d="m332.961914,11.4302l-0.848999,59.354598l68.681,0c3.391998,-5.087593 -64.44101,-57.658698 -67.832001,-59.354598z"/>
   <path fill="#cca89d" fill-rule="evenodd" stroke="#000000" stroke-width="13.698779" stroke-linejoin="round" id="path554" d="m239.043167,366.76825l-17.68811,73.080719l73.915665,-50.838562c0,0 -6.438629,-43.213165 -56.227554,-22.242157z"/>
   <path fill="#c96400" fill-rule="evenodd" stroke="#000000" stroke-width="13.698779" stroke-linejoin="round" id="path553" d="m239.698517,366.76825l166.399384,-228.776047c0,0 15.722626,-19.064644 33.410889,-8.261353c5.241638,1.270996 3.931213,0.000076 14.412994,7.625854c2.620056,1.906509 3.930481,17.158218 3.930481,17.158218c0,0 -163.779297,234.495483 -163.779297,235.131073c0,0.634827 -2.620819,-13.981171 -17.033051,-21.60733c-13.10257,-7.625397 -36.686188,-0.634827 -37.3414,-1.270416z"/>
   <path fill-rule="evenodd" stroke="#000000" stroke-width="17.123474" stroke-linejoin="round" id="path555" d="m220.699921,440.484558l5.896088,-22.877716c0,-0.635559 7.861404,-0.635559 10.481857,2.542297c2.620651,0.635559 3.275864,5.719421 3.275864,5.719421l-19.653809,14.615997z"/>
   <path fill="#fc64e3" fill-rule="evenodd" stroke="#000000" stroke-width="13.698779" stroke-linejoin="round" id="path556" d="m398.89212,146.889069l32.100494,-37.493797c0,0 13.75705,-13.980751 27.514862,-6.990356c13.757019,6.990356 7.205719,3.177361 13.757751,7.625786c5.895355,8.896935 -1.965576,25.419586 -2.620789,25.419586c-0.655212,0 -26.85965,41.942642 -26.85965,41.942642c0,0 6.550568,-7.626144 -4.586395,-13.345642c-12.446625,-15.887222 -39.961487,-17.158218 -39.306274,-17.158218z"/>
   <path fill="url(#linearGradient561)" fill-rule="evenodd" stroke="#000000" stroke-width="13.698779" stroke-linejoin="round" id="path557" d="m391.685638,155.785858c-0.655212,0 26.859619,-34.316299 26.859619,-34.316299c0,0 11.136963,-1.271065 20.963531,1.270935c11.137695,4.448425 6.5513,1.270996 14.412994,6.990433c7.20575,5.71936 8.516144,19.064636 8.516144,19.064636l-20.963531,31.774506c0,0 0.655212,-6.354996 -5.896088,-13.344849c-10.48175,-8.261932 -20.964264,-9.532867 -27.514832,-12.07486c-9.172089,-1.270935 -17.033051,1.270996 -16.377838,0.635498z"/>
   <path fill="#ffffff" fill-rule="evenodd" stroke-width="17.123474" stroke-linejoin="round" id="path566" d="m221.99321,438.628906c0,-0.898743 5.095612,-19.771759 6.485321,-19.771759c1.389725,0 6.022095,0.898712 6.022095,2.246765c-7.875046,4.493591 -11.117706,16.17691 -12.507416,17.524994z"/>
   <path fill="#ffffff" fill-opacity="0.503704" fill-rule="evenodd" stroke-width="17.123474" stroke-linejoin="round" id="path564" d="m255.607513,355.762634c10.684113,-16.460175 137.151947,-188.489029 140.923065,-190.927567c52.790527,-21.337173 -103.84256,139.718002 -140.923065,190.927567z"/>
   <path fill="#ffffff" fill-opacity="0.501961" fill-rule="evenodd" stroke-width="17.123474" stroke-linejoin="round" id="path565" d="m234.507065,414.152222c0,-1.829071 7.541885,-34.138977 11.311981,-44.502991c1.257034,0 21.126724,-3.026001 28.039719,7.948395c-24.509338,3.65741 -38.094727,31.677826 -39.3517,36.554596z"/>
   <path fill-opacity="0.25" fill-rule="evenodd" stroke-width="17.123474" stroke-linejoin="round" id="path567" d="m457.250427,105.677681c0,0 14.454498,3.048225 14.454498,7.31562c3.770355,12.192635 -3.142639,18.89856 -7.541534,26.214188c1.25705,-11.583015 3.771149,-17.069641 -6.912964,-33.529808z"/>
  </g>
  <path d="m79.666687,36.666687c0,1 0,2 0,4c0,1 0,2 0,3c0,1 0,2 0,3c0,1 0,2 0,3c0,1 0,2 0,3c0,2 0,3 0,4c0,1 -0.707108,2.292892 0,3c0.707108,0.707108 2,0 3,0c1,0 2.292892,-0.292892 3,-1c0.707108,-0.707108 1.458801,-0.693436 2,-2c0.382683,-0.923878 -0.707108,-2.292892 0,-3c0.707108,-0.707108 1,-1 1,-2c0,-1 0.292892,-1.292892 1,-2c0.707108,-0.707108 1,-2 1,-1c0,1 0,2 0,3c0,1 0,2 0,3c0,1 1.458801,0.693436 2,2c0.382683,0.923878 0.292892,1.292892 1,2c0.707108,0.707108 1.693436,0.458805 3,1c0.923882,0.382683 1,-1 1,-2c0,-1 0.617317,-1.076122 1,-2c0.541199,-1.306564 1,-2 1,-3c0,-1 0,-2 0,-3c0,-1 1,-2 1,-4c0,-1 0,-3 1,-4l1,0l0,-1" id="svg_1" stroke-width="5" stroke="#000000" fill="none"/>
  <path d="m113.666687,39.666687c0,1 0,2 0,3c0,1 0,2 0,3c0,1 0,2 0,3c0,1 0,3 0,4c0,1 0,2 0,3c0,1 0,2 0,1c0,-1 0,-2 0,-3c0,-1 0,-2 0,-3c0,-1 -0.382683,-2.076122 0,-3c0.541199,-1.306564 0.292892,-3.292892 1,-4c0.707108,-0.707108 2,0 3,0c1,0 2,0 3,0c1,0 2,0 3,0l1,0" id="svg_2" stroke-width="5" stroke="#000000" fill="none"/>
  <path d="m136.666687,41.666687c1,0 1,1 1,2c0,1 0,2 0,3c0,1 1,2 1,3c0,1 0,3 0,4c0,2 0,3 0,4c0,1 0,2 0,3l0,1" id="svg_3" stroke-width="5" stroke="#000000" fill="none"/>
  <path d="m136.666687,29.666687c0,-1 1,-1 2,-1l0,1l0,1" id="svg_4" stroke-width="5" stroke="#000000" fill="none"/>
  <path d="m151.666687,36.666687c1,0 1.292892,0.292892 2,1c0.707108,0.707108 3,0 4,0c1,0 2,0 3,0c1,0 2,0 3,0c1,0 2,0 3,0l1,0l1,0" id="svg_6" stroke-width="5" stroke="#000000" fill="none"/>
  <path d="m182.666687,37.666687c0,1 0,2 0,3c0,1 0,2 0,3c0,1 0,3 0,5c0,1 0,2 0,3l0,1l0,1" id="svg_7" stroke-width="5" stroke="#000000" fill="none"/>
  <path d="m182.666687,25.666687" id="svg_8" stroke-width="5" stroke="#000000" fill="none"/>
  <path d="m182.666687,30.666687c1,0 2,0 2,1l0,1l0,1" id="svg_9" stroke-width="5" stroke="#000000" fill="none"/>
  <path d="m198.666687,37.666687c0,1 0,2 0,3c0,1 0,2 0,3c0,1 0,2 0,3c0,1 0,2 0,3c0,1 0,2 0,3c0,1 0,2 0,1c0,-1 0,-2 0,-3c0,-1 0,-2 0,-4c0,-1 0.292892,-1.292892 1,-2c0.707108,-0.707108 0.292892,-1.292892 1,-2c0.707108,-0.707108 2.292892,-0.292892 3,-1c0.707108,-0.707108 1.026749,-1.770248 2,-2c2.176254,-0.513744 2.61731,-0.923878 3,0c0.541199,1.306564 1.292892,1.292892 2,2c1.414215,1.414215 1,3 1,4c0,1 0,2 0,3l0,1l0,1" id="svg_10" stroke-width="5" stroke="#000000" fill="none"/>
  <path d="m228.666687,36.666687c1,0 2.693436,2.458805 4,3c0.923874,0.382683 1.823746,1.486256 4,2c0.973251,0.229752 0.292892,1.292892 1,2c0.707108,0.707108 2,1 2,2c0,1 0,2 0,3c0,1 0.38269,2.076122 0,3c-0.541199,1.306564 -1,2 -2,2c-1,0 -2.076126,0.382683 -3,0c-1.306564,-0.541195 -1.474274,-1.149349 -2,-2c-1.175568,-1.902115 -4.292892,-2.292892 -5,-3c-0.707108,-0.707108 0,-2 0,-3c0,-2 0,-3 0,-4c0,-1 0.61731,-1.076122 1,-2c0.541199,-1.306564 1,-2 1,-3c0,-1 1,-1 2,-1c1,0 2,0 3,0c1,0 1.292892,0.292892 2,1c0.707108,0.707108 2,0 2,1c0,1 0,2 0,3c0,1 0,2 0,3c0,1 0.292892,2.292892 1,3c0.707108,0.707108 1,1 1,2c0,1 0.458801,1.693436 1,3c0.38269,0.923878 0,2 0,3c0,1 0,2 0,3c0,1 0,2 0,3c0,1 -1.076126,0.617317 -2,1c-1.306564,0.541195 -2,2 -3,2c-1,0 -2,0 -3,0l-1,0l-1,-1l0,-1" id="svg_11" stroke-width="5" stroke="#000000" fill="none"/>
  <path d="m198.666687,51.666687c0,1 0,2 0,3c0,1 0,2 0,3c0,1 0,2 0,3c0,1 0,2 0,1l0,-1l0,-1" id="svg_12" stroke-width="5" stroke="#000000" fill="none"/>
  <path d="m212.666687,46.666687c0,1 0,2 0,3c0,1 0,2 0,3c0,1 0,2 0,3c0,1 0,2 0,3l0,1l0,1l0,1" id="svg_13" stroke-width="5" stroke="#000000" fill="none"/>
  <path d="m158.666687,30.666687c0,2 0,3 0,4c0,1 0,2 0,4c0,1 0,2 0,4c0,1 -1,2 -1,3c0,1 -0.707108,3.292892 0,4c0.707108,0.707108 1.292892,0.292892 2,1c0.707108,0.707108 0.292892,1.292892 1,2c0.707108,0.707108 2,0 3,0c1,0 1.292892,0.707108 2,0c0.707108,-0.707108 0.292892,-1.292892 1,-2c0.707108,-0.707108 1,-1 2,-1l0,-1" id="svg_14" stroke-width="5" stroke="#000000" fill="none"/>
  <path d="m86.666687,76.666687c1,0 2,0 3,0c2,0 3,0 4,0c1,0 2,0 3,1c1,1 1.474266,1.149345 2,2c1.175568,1.902115 2,2 2,3c0,1 0,2 0,3c0,3 0.229752,5.026749 0,6c-0.513741,2.176254 -1.292892,2.292892 -2,3c-0.707108,0.707108 -1,1 -2,1c-1,0 -2,0 -4,0c-1,0 -1.85273,-0.173096 -3,-1c-1.813995,-1.307449 -3.173096,-1.85273 -4,-3c-1.307449,-1.813995 -1.458801,-2.693436 -2,-4c-0.382683,-0.923882 0,-2 0,-3c0,-1 0,-2 0,-3c0,-1 -0.707108,-2.292892 0,-3c0.707108,-0.707108 1,-1 2,-1c1,0 2,-1 3,-1c1,0 1,-1 2,-1c1,0 2,0 3,0c1,0 1.617317,0.076118 2,1c0.541199,1.306564 2.076118,1.617317 3,2c1.306564,0.541199 1.076118,1.617317 2,2c1.306564,0.541199 1.486259,1.823746 2,4c0.229752,0.973251 0,2 0,3c0,1 1.458801,0.693436 2,2c0.382683,0.923882 0.292892,1.292892 1,2c0.707108,0.707108 1,1 2,1c1,0 1.292892,0.292892 2,1c0.707108,0.707108 1,1 2,1l0,-1" id="svg_15" stroke-width="5" stroke="#000000" fill="none"/>
  <path d="m120.666687,77.666687c0,2 0,3 0,4c0,1 0,4 0,5c0,1 0,2 0,3c0,1 0,2 0,3c0,1 0,2 0,3c0,1 0,2 0,3c0,1 0,2 1,2c1,0 0,-3 0,-4c0,-1 0,-5 0,-6c0,-1 0.707108,-2.292892 0,-3c-0.707108,-0.707108 -1,-1 -1,-2c0,-1 0,-2 0,-3c0,-1 1,-1 3,-1c1,0 2,0 3,0c1,0 1.076118,0.617317 2,1c1.306564,0.541199 2.173096,1.85273 3,3c1.307449,1.813995 3.486252,1.823746 4,4c0.229752,0.973251 0,2 0,3c0,1 0,2 0,3c0,1 -1,1 -1,2l0,1l0,1" id="svg_16" stroke-width="5" stroke="#000000" fill="none"/>
  <path d="m153.666687,77.666687c0,1 0,2 0,3c0,1 0,2 0,3c0,1 0,2 0,3c0,1 0,2 0,4c0,2 0.770248,3.026749 1,4c0.513748,2.176254 1,3 1,5c0,1 1,5 1,6c0,1 1,3 1,4c0,1 0,0 0,-1c0,-2 0.320358,-4.025826 0,-6c-0.506546,-3.121445 -1,-4 -1,-5c0,-2 0.707108,-3.292892 0,-4c-0.707108,-0.707108 -2,0 -3,0c-1,0 -2,0 -3,0c-1,0 -2.076126,0.617317 -3,1c-1.306564,0.541199 -1,2 -1,3c0,1 0,3 0,4c0,1 0,2 0,3c0,1 0,2 0,4c0,1 0,2 0,3c0,1 1.292892,1.707108 2,1c0.707108,-0.707108 1.292892,-0.292892 2,-1c0.707108,-0.707108 1,-1 2,-1l2,-1l1,0l1,-1" id="svg_17" stroke-width="5" stroke="#000000" fill="none"/>
  <path d="m79.666687,116.666687c0,1 0,2 0,3c0,1 0,2 0,3c0,1 1,3 1,4c0,1 0,6 0,7c0,1 1,3 1,4c0,2 0,3 0,4c0,1 0,2 0,5c0,2 0,3 0,4c0,2 0,3 0,4c0,1 0.292892,0.707108 1,0c0.707108,-0.707108 1,-1 3,-1c1,0 1.292892,-0.292892 2,-1c1.414215,-1.414215 3,0 4,0c1,0 2,-1 3,-1c1,0 2,0 3,0c1,0 2,0 3,0l1,0l1,0l1,0" id="svg_18" stroke-width="5" stroke="#000000" fill="none"/>
  <path d="m115.666687,129.666687c0,1 0,2 0,3c0,1 0,2 0,3c0,2 0,3 0,4c0,1 0,2 0,3c0,1 0,2 0,3c0,1 0,2 0,3c0,1 0,2 0,3c0,1 0,2 0,3l0,1l0,1" id="svg_19" stroke-width="5" stroke="#000000" fill="none"/>
  <path d="m114.666687,116.666687c1,0 1.292892,0.292892 2,1c0.707108,0.707108 0,2 0,3c0,1 -1,1 -1,0l0,-1" id="svg_20" stroke-width="5" stroke="#000000" fill="none"/>
  <path d="m136.666687,120.666687c0,1 0,2 0,3c0,1 0,2 0,4c0,1 0,2 0,4c0,1 0,2 0,3c0,2 0,4 0,5c0,1 0,2 0,3c0,1 0,2 0,3c0,2 -0.902115,3.824432 1,5c0.850647,0.525726 1,1 1,2c0,1 1,1 2,1c1,0 2,0 3,0c1,0 1.292892,-0.292892 2,-1c0.707108,-0.707108 1,-1 1,-2c0,-1 0,-2 1,-3c1,-1 1,-2 1,-3l0,-1" id="svg_21" stroke-width="5" stroke="#000000" fill="none"/>
  <path d="m128.666687,130.666687c1,0 2.292892,-0.707108 3,0c0.707108,0.707108 1,1 2,1c1,0 2,0 3,0c1,0 2,0 3,0c1,0 2,0 3,0l1,0l1,0l1,0" id="svg_22" stroke-width="5" stroke="#000000" fill="none"/>
  <path d="m164.666687,143.666687c1,0 2,0 3,0c1,0 1.292892,-0.292892 2,-1c0.707108,-0.707108 2.292892,-1.292892 3,-2c0.707108,-0.707108 1,-1 1,-2c0,-1 0,-2 0,-3c0,-1 0.707108,-2.292892 0,-3c-0.707108,-0.707108 -1.076126,-0.61731 -2,-1c-1.306564,-0.541199 -2,-1 -3,-1c-1,0 -2.292892,-0.707108 -3,0c-0.707108,0.707108 0,2 0,3c0,1 1,2 1,3c0,1 -0.707108,2.292892 0,3c0.707108,0.707108 1,2 1,3c0,1 0,2 1,2c1,0 1.292892,0.292892 2,1c0.707108,0.707108 1,1 2,1c1,0 2,0 3,0c1,0 2,0 3,0l1,0l0,-1l0,-1" id="svg_23" stroke-width="5" stroke="#000000" fill="none"/>
  <path d="m192.666687,126.666687c0,1 0,2 0,3c0,1 0,2 0,4c0,1 0,2 0,3c0,1 0,2 0,3c0,1 0,2 0,3c0,1 0,2 0,3c0,1 -1,3 0,3c1,0 0,-3 0,-4c0,-1 0,-2 0,-3c0,-1 0,-2 0,-3c0,-1 -0.707108,-2.292892 0,-3c0.707108,-0.707108 1.292892,-0.292892 2,-1c0.707108,-0.707108 0.076126,-1.61731 1,-2c1.306564,-0.541199 1.61731,-1.076126 2,-2c0.541199,-1.306564 2.292892,-0.292892 3,-1c0.707108,-0.707108 1,-1 2,-1c1,0 0.292892,1.292892 1,2c0.707108,0.707108 1,1 1,2l0,1" id="svg_24" stroke-width="5" stroke="#000000" fill="none"/>
  <path d="m220.666687,127.666687c1,0 1.076126,0.61731 2,1c1.306564,0.541199 1.292892,1.292892 2,2c1.414215,1.414215 2,3 2,4c0,1 0,2 0,3c0,2 1,2 1,4c0,1 0,5 0,6c0,1 -1,1 -2,1c-1,0 -2.076126,0.38269 -3,0c-1.306564,-0.541199 -1.076126,-1.61731 -2,-2c-1.306564,-0.541199 -1,-2 -2,-3c-1,-1 -3,-4 -3,-6c0,-2 0,-3 0,-4c0,-1 -0.414215,-2.585785 1,-4c0.707108,-0.707108 1,-1 1,-2c0,-1 0.693436,-1.458801 2,-2c0.923874,-0.382683 1.076126,-0.617317 2,-1c1.306564,-0.541199 2,-1 3,-1c1,0 1.458801,0.693436 2,2c0.38269,0.923882 0,2 0,3c0,1 0,2 0,3c0,1 0.458801,1.693436 1,3c0.38269,0.923874 -0.707108,2.292892 0,3c0.707108,0.707108 1.292892,0.292892 2,1c0.707108,0.707108 1,1 2,1c1,0 0.693436,1.458801 2,2c0.923874,0.38269 1.292892,0.292892 2,1c0.707108,0.707108 1,2 2,3l1,1" id="svg_25" stroke-width="5" stroke="#000000" fill="none"/>
  <path d="m254.666687,120.666687c0,1 0,2 0,3c0,1 0,2 0,3c0,1 0,2 0,3c0,1 0,3 0,4c0,1 0,2 0,3c0,2 0,4 0,5c0,2 0,3 0,5c0,4 0.493454,4.878555 1,8c0.160187,0.987091 0,2 0,3c0,1 1,1 2,1c1,0 2.292908,-0.292892 3,-1c0.707092,-0.707108 1.292908,-0.292892 2,-1c0.707092,-0.707108 -0.707092,-2.292892 0,-3c0.707092,-0.707108 1.458801,-0.693436 2,-2c0.38269,-0.923874 1,-1 1,-2l1,0l0,-1l0,-1" id="svg_26" stroke-width="5" stroke="#000000" fill="none"/>
  <path d="m265.666687,129.666687c-1,0 -2,0 -3,0c-1,0 -2,0 -3,0c-1,0 -2,0 -3,0c-1,0 -2,0 -3,0c-1,0 -2,0 -3,0c-1,0 -2,0 -3,0l-1,0" id="svg_27" stroke-width="5" stroke="#000000" fill="none"/>
  <path d="m276.666687,128.666687c0,1 0,2 0,3c0,1 0.458801,1.693436 1,3c0.38269,0.923874 -0.707092,2.292892 0,3c0.707092,0.707108 0.292908,1.292892 1,2c0.707092,0.707108 1.292908,0.292892 2,1c0.707092,0.707108 0.292908,2.292892 1,3c0.707092,0.707108 2,0 3,0c1,0 2,0 3,0c1,0 1.292908,-0.292892 2,-1c0.707092,-0.707108 1,-2 1,-3c0,-1 1,-1 1,-2c0,-1 0,-2 0,-3c0,-1 0,-2 0,-3l0,-1l0,-1l0,-1" id="svg_28" stroke-width="5" stroke="#000000" fill="none"/>
  <path d="m299.666687,129.666687c0,1 1,2 1,3c0,2 0,3 0,4c0,1 1,3 1,4c0,1 -0.707092,2.292892 0,3c0.707092,0.707108 1,-1 1,-2c0,-2 0,-3 0,-4c0,-1 0,-2 0,-3c0,-1 -0.38269,-2.076126 0,-3c0.541199,-1.306564 2,-1 3,-1c1,0 2,0 3,0c1,0 1,1 2,1l0,1l1,0" id="svg_29" stroke-width="5" stroke="#000000" fill="none"/>
  <path d="m321.666687,136.666687c0,1 1,1 2,1c1,0 2,0 3,0c1,0 2,0 3,0c1,0 1.292908,-0.292892 2,-1c0.707092,-0.707108 0,-2 1,-3c1,-1 2.486267,-1.823746 3,-4c0.229767,-0.973251 0,-2 0,-3c0,-1 -0.292908,-1.292892 -1,-2c-0.707092,-0.707108 -0.693451,-1.458801 -2,-2c-0.923889,-0.382683 -2,0 -3,0c-1,0 -2,0 -2,1c0,1 -0.292908,1.292892 -1,2c-0.707092,0.707108 0,2 0,3c0,1 0,2 0,3c0,1 0,2 0,3c0,1 0,2 0,3c0,1 1.076111,0.61731 2,1c1.306549,0.541199 2,2 2,3c0,1 1.292908,0.292892 2,1c0.707092,0.707108 1,1 2,1c1,0 2,0 2,1l1,0l0,-1l0,-1" id="svg_30" stroke-width="5" stroke="#000000" fill="none"/>
  <path d="m96.666687,183.666687c-1,0 -2,0 -3,0c-1,0 -1.292892,0.292892 -2,1c-0.707108,0.707108 -1,1 -1,2c0,1 0.707108,2.292892 0,3c-0.707108,0.707108 -0.770248,1.026749 -1,2c-0.513741,2.176254 -1,3 -1,4c0,3 0,4 0,6c0,1 -0.382683,2.076126 0,3c0.541199,1.306564 0.617317,2.076126 1,3c0.541199,1.306564 0.617317,2.076126 1,3c0.541199,1.306564 1.292892,1.292892 2,2c0.707108,0.707108 2,0 3,0c1,0 2,0 3,0c1,0 2.292892,0.707108 3,0c0.707108,-0.707108 1,-1 2,-1c1,0 2,0 3,-1l1,0l0,-1l0,-1" id="svg_31" stroke-width="5" stroke="#000000" fill="none"/>
  <path d="m122.666687,177.666687c0,1 0,2 0,3c0,2 0,3 0,4c0,1 -1,2 -1,3c0,1 0,2 0,3c0,4 0,6 0,7c0,1 -0.458801,1.693436 -1,3c-0.765366,1.847763 0,3 0,4c0,1 0,2 0,3c0,1 0,2 0,3c0,1 0,2 0,3l0,1l0,-1" id="svg_32" stroke-width="5" stroke="#000000" fill="none"/>
  <path d="m143.666687,191.666687c2,0 3.852737,0.173096 5,1c1.813995,1.307449 2.292892,1.292892 3,2c0.707108,0.707108 1.458801,1.693436 2,3c0.38269,0.923874 1.824432,1.097885 3,3c0.525726,0.850647 0.458801,1.693436 1,3c0.38269,0.923874 0,3 0,4c0,2 0,3 0,6c0,1 -1,1 -2,1c-1,0 -2,0 -3,0c-1,0 -2,0 -3,-1c-1,-1 -2,-2 -3,-3c-1,-1 -2.292892,-1.292892 -3,-2c-1.414215,-1.414215 -1.292892,-3.292892 -2,-4c-0.707108,-0.707108 -2,-1 -2,-3c0,-1 0,-3 0,-5c0,-1 0,-2 0,-4c0,-2 1,-2 2,-2c1,0 3.076126,-0.38269 4,0c1.306564,0.541199 1.823746,1.486252 4,2c0.973251,0.229752 1.292892,0.292892 2,1c0.707108,0.707108 2.458801,0.693436 3,2c0.38269,0.923874 -0.38269,2.076126 0,3c0.541199,1.306564 1.292892,1.292892 2,2c1.414215,1.414215 1.486252,3.823746 2,6c0.229752,0.973251 1,2 1,3c0,1 0.292892,2.292892 1,3c0.707108,0.707108 2,0 3,0c1,0 2,0 3,0l1,0l1,0l1,0" id="svg_33" stroke-width="5" stroke="#000000" fill="none"/>
  <path d="m194.666687,187.666687c-1,0 -2.076126,0.61731 -3,1c-1.306564,0.541199 -1,2 -1,3c0,1 0,2 0,3c0,1 0,2 1,2c1,0 3.292892,1.292892 4,2c0.707108,0.707108 1,1 1,2c0,1 0.292892,1.292892 1,2c0.707108,0.707108 0.292892,2.292892 1,3c0.707108,0.707108 1,1 1,2c0,1 0.707108,2.292892 0,3c-0.707108,0.707108 -1.292892,0.292892 -2,1c-0.707108,0.707108 -1,1 -2,1c-1,0 -1,-1 -2,-1c-1,0 -1,-1 -2,-1c-1,0 -2,0 -3,0l0,-1" id="svg_34" stroke-width="5" stroke="#000000" fill="none"/>
  <path d="m219.666687,185.666687c-1,0 -1.61731,0.076126 -2,1c-0.541199,1.306564 -1,2 -1,3c0,1 -0.486252,1.823746 -1,4c-0.229752,0.973251 -1.707108,1.292892 -1,2c0.707108,0.707108 1.693436,0.458801 3,1c0.923874,0.38269 2.076126,0.61731 3,1c1.306564,0.541199 1.61731,1.076126 2,2c0.541199,1.306564 1.292892,1.292892 2,2c0.707108,0.707108 1,1 1,2c0,1 0.292892,1.292892 1,2c1.414215,1.414215 0,3 0,4c0,1 0,2 0,3c0,1 -2,1 -3,0c-1,-1 -2.292892,-1.292892 -3,-2c-0.707108,-0.707108 -1.292892,-0.292892 -2,-1c-0.707108,-0.707108 -2,0 -3,0l-1,0l0,-1" id="svg_35" stroke-width="5" stroke="#000000" fill="none"/>
  <polyline id="svg_36" points="-221.33331298828125,116.66668701171875 -222.33331298828125,108.66668701171875 -222.33331298828125,98.66668701171875 " stroke-linecap="round" stroke-width="5" stroke="#000000" fill="none"/>
  <path d="m-222.333313,46.666687c1,2 0.61731,3.076122 1,4c0.541199,1.306564 2.186005,1.692547 4,3c2.29454,1.653809 4.594437,4.555206 14,11c4.810089,3.295921 8.16124,5.796265 12,9c1.716751,1.432755 3,3 4,4l0,1l-1,0l-1,0" id="svg_37" stroke-width="5" stroke="#000000" fill="none"/>
 </g>
</svg>